<?xml version="1.0" encoding="UTF-8" standalone="no"?><svg xmlns="http://www.w3.org/2000/svg" xmlns:xlink="http://www.w3.org/1999/xlink" contentScriptType="application/ecmascript" contentStyleType="text/css" height="626px" preserveAspectRatio="none" style="width:1327px;height:626px;" version="1.1" viewBox="0 0 1327 626" width="1327px" zoomAndPan="magnify"><defs><filter height="300%" id="fsl6m533jwuaf" width="300%" x="-1" y="-1"><feGaussianBlur result="blurOut" stdDeviation="2.0"/><feColorMatrix in="blurOut" result="blurOut2" type="matrix" values="0 0 0 0 0 0 0 0 0 0 0 0 0 0 0 0 0 0 .4 0"/><feOffset dx="4.0" dy="4.0" in="blurOut2" result="blurOut3"/><feBlend in="SourceGraphic" in2="blurOut3" mode="normal"/></filter></defs><g><!--cluster Client--><polygon fill="#FFFFFF" filter="url(#fsl6m533jwuaf)" points="22,24,73,24,80,46.2969,1084,46.2969,1084,614,22,614,22,24" style="stroke: #000000; stroke-width: 1.5;"/><line style="stroke: #000000; stroke-width: 1.5;" x1="22" x2="80" y1="46.2969" y2="46.2969"/><text fill="#000000" font-family="sans-serif" font-size="14" font-weight="bold" lengthAdjust="spacingAndGlyphs" textLength="45" x="26" y="38.9951">Client</text><!--cluster Board--><polygon fill="#FFFFFF" filter="url(#fsl6m533jwuaf)" points="46,67,98,67,105,89.2969,745,89.2969,745,590,46,590,46,67" style="stroke: #000000; stroke-width: 1.5;"/><line style="stroke: #000000; stroke-width: 1.5;" x1="46" x2="105" y1="89.2969" y2="89.2969"/><text fill="#000000" font-family="sans-serif" font-size="14" font-weight="bold" lengthAdjust="spacingAndGlyphs" textLength="46" x="50" y="81.9951">Board</text><!--class Colours--><rect fill="#FEFECE" filter="url(#fsl6m533jwuaf)" height="105.1563" id="Colours" style="stroke: #A80036; stroke-width: 1.5;" width="156" x="912" y="99"/><ellipse cx="951.75" cy="117.9688" fill="#ADD1B2" rx="11" ry="11" style="stroke: #A80036; stroke-width: 1.0;"/><path d="M954.0938,113.6406 L954.2656,113.7188 C954.4844,113.4063 954.6875,113.3125 954.9844,113.3125 C955.2813,113.3125 955.5625,113.4531 955.7188,113.7188 C955.8125,113.875 955.8281,114 955.8281,114.4375 L955.8281,115.8594 C955.8281,116.2813 955.7969,116.4688 955.6875,116.625 C955.5156,116.8438 955.25,116.9844 954.9844,116.9844 C954.7656,116.9844 954.5313,116.875 954.3906,116.7344 C954.25,116.6094 954.2188,116.4844 954.1563,116.0781 C954.0625,115.6719 953.8906,115.4531 953.4063,115.1719 C952.9375,114.9219 952.3281,114.7656 951.75,114.7656 C950.0156,114.7656 948.7656,116.0781 948.7656,117.8594 L948.7656,118.9531 C948.7656,120.6563 950.0625,121.75 952.1094,121.75 C952.875,121.75 953.5625,121.625 953.9844,121.3594 C954.1719,121.2656 954.1719,121.2656 954.625,120.7813 C954.8125,120.5938 955.0156,120.5156 955.2344,120.5156 C955.7031,120.5156 956.0938,120.9063 956.0938,121.3594 C956.0938,121.75 955.7656,122.2031 955.1875,122.6094 C954.4375,123.1563 953.2813,123.4531 952.0625,123.4531 C949.1719,123.4531 947.0625,121.5625 947.0625,118.9844 L947.0625,117.8594 C947.0625,115.1406 949.0625,113.0625 951.6875,113.0625 C952.5625,113.0625 953.1563,113.2031 954.0938,113.6406 Z "/><text fill="#000000" font-family="sans-serif" font-size="12" font-style="italic" lengthAdjust="spacingAndGlyphs" textLength="73" x="969.25" y="115.1387">«Singleton»</text><text fill="#000000" font-family="sans-serif" font-size="12" lengthAdjust="spacingAndGlyphs" textLength="47" x="982.25" y="129.1074">Colours</text><line style="stroke: #A80036; stroke-width: 1.5;" x1="913" x2="1067" y1="136.9375" y2="136.9375"/><rect fill="none" height="6" style="stroke: #C82930; stroke-width: 1.0;" width="6" x="920" y="145.8398"/><text fill="#000000" font-family="sans-serif" font-size="11" lengthAdjust="spacingAndGlyphs" text-decoration="underline" textLength="104" x="932" y="151.1479">instance : Colours</text><line style="stroke: #000000; stroke-width: 1.0;" x1="932" x2="1036" y1="153.1479" y2="153.1479"/><line style="stroke: #A80036; stroke-width: 1.5;" x1="913" x2="1067" y1="157.7422" y2="157.7422"/><rect fill="#F24D5C" height="6" style="stroke: #C82930; stroke-width: 1.0;" width="6" x="920" y="166.6445"/><text fill="#000000" font-family="sans-serif" font-size="11" lengthAdjust="spacingAndGlyphs" textLength="52" x="932" y="171.9526">Colours()</text><ellipse cx="923" cy="182.4492" fill="#84BE84" rx="3" ry="3" style="stroke: #038048; stroke-width: 1.0;"/><text fill="#000000" font-family="sans-serif" font-size="11" lengthAdjust="spacingAndGlyphs" text-decoration="underline" textLength="130" x="932" y="184.7573">getInstance() : Colours</text><line style="stroke: #000000; stroke-width: 1.0;" x1="932" x2="1062" y1="186.7573" y2="186.7573"/><rect fill="#F24D5C" height="6" style="stroke: #C82930; stroke-width: 1.0;" width="6" x="920" y="192.2539"/><text fill="#000000" font-family="sans-serif" font-size="11" lengthAdjust="spacingAndGlyphs" textLength="53" x="932" y="197.562">initialize()</text><!--class Pawn--><rect fill="#FEFECE" filter="url(#fsl6m533jwuaf)" height="73.6094" id="Pawn" style="stroke: #A80036; stroke-width: 1.5;" width="116" x="761" y="114.5"/><ellipse cx="798.95" cy="130.5" fill="#ADD1B2" rx="11" ry="11" style="stroke: #A80036; stroke-width: 1.0;"/><path d="M801.2938,126.1719 L801.4656,126.25 C801.6844,125.9375 801.8875,125.8438 802.1844,125.8438 C802.4813,125.8438 802.7625,125.9844 802.9188,126.25 C803.0125,126.4063 803.0281,126.5313 803.0281,126.9688 L803.0281,128.3906 C803.0281,128.8125 802.9969,129 802.8875,129.1563 C802.7156,129.375 802.45,129.5156 802.1844,129.5156 C801.9656,129.5156 801.7313,129.4063 801.5906,129.2656 C801.45,129.1406 801.4188,129.0156 801.3563,128.6094 C801.2625,128.2031 801.0906,127.9844 800.6063,127.7031 C800.1375,127.4531 799.5281,127.2969 798.95,127.2969 C797.2156,127.2969 795.9656,128.6094 795.9656,130.3906 L795.9656,131.4844 C795.9656,133.1875 797.2625,134.2813 799.3094,134.2813 C800.075,134.2813 800.7625,134.1563 801.1844,133.8906 C801.3719,133.7969 801.3719,133.7969 801.825,133.3125 C802.0125,133.125 802.2156,133.0469 802.4344,133.0469 C802.9031,133.0469 803.2938,133.4375 803.2938,133.8906 C803.2938,134.2813 802.9656,134.7344 802.3875,135.1406 C801.6375,135.6875 800.4813,135.9844 799.2625,135.9844 C796.3719,135.9844 794.2625,134.0938 794.2625,131.5156 L794.2625,130.3906 C794.2625,127.6719 796.2625,125.5938 798.8875,125.5938 C799.7625,125.5938 800.3563,125.7344 801.2938,126.1719 Z "/><text fill="#000000" font-family="sans-serif" font-size="12" lengthAdjust="spacingAndGlyphs" textLength="33" x="818.05" y="134.6543">Pawn</text><line style="stroke: #A80036; stroke-width: 1.5;" x1="762" x2="876" y1="146.5" y2="146.5"/><rect fill="none" height="6" style="stroke: #C82930; stroke-width: 1.0;" width="6" x="769" y="155.4023"/><text fill="#000000" font-family="sans-serif" font-size="11" lengthAdjust="spacingAndGlyphs" text-decoration="underline" textLength="90" x="781" y="160.7104">radius : final int</text><line style="stroke: #000000; stroke-width: 1.0;" x1="781" x2="871" y1="162.7104" y2="162.7104"/><line style="stroke: #A80036; stroke-width: 1.5;" x1="762" x2="876" y1="167.3047" y2="167.3047"/><ellipse cx="772" cy="179.207" fill="#84BE84" rx="3" ry="3" style="stroke: #038048; stroke-width: 1.0;"/><text fill="#000000" font-family="sans-serif" font-size="11" lengthAdjust="spacingAndGlyphs" textLength="38" x="781" y="181.5151">Pawn()</text><!--class Board--><rect fill="#FEFECE" filter="url(#fsl6m533jwuaf)" height="99.2188" id="Board" style="stroke: #A80036; stroke-width: 1.5;" width="144" x="579" y="102"/><ellipse cx="628.25" cy="118" fill="#B4A7E5" rx="11" ry="11" style="stroke: #A80036; stroke-width: 1.0;"/><path d="M629.2031,114.7813 L629.2031,121.2969 L630.9219,121.2969 C631.375,121.2969 631.5156,121.3281 631.6875,121.4531 C631.9219,121.625 632.0313,121.875 632.0313,122.1563 C632.0313,122.7188 631.6719,123 630.9219,123 L625.7813,123 C625.375,123 625.1719,122.9531 625.0156,122.8281 C624.7969,122.6719 624.6563,122.4063 624.6563,122.1563 C624.6563,121.8594 624.8125,121.5781 625.0625,121.4219 C625.2188,121.3125 625.3438,121.2969 625.7813,121.2969 L627.5,121.2969 L627.5,114.7813 L625.7813,114.7813 C625.3594,114.7813 625.1719,114.75 625.0156,114.6406 C624.7969,114.4688 624.6563,114.2188 624.6563,113.9375 C624.6563,113.6563 624.8125,113.3594 625.0625,113.2031 C625.2188,113.1094 625.3438,113.0938 625.7813,113.0938 L630.9219,113.0938 C631.375,113.0938 631.5156,113.125 631.6875,113.2344 C631.9219,113.4063 632.0313,113.6719 632.0313,113.9375 C632.0313,114.2344 631.8906,114.5156 631.625,114.6719 C631.5,114.75 631.3125,114.7813 630.9219,114.7813 Z "/><text fill="#000000" font-family="sans-serif" font-size="12" font-style="italic" lengthAdjust="spacingAndGlyphs" textLength="37" x="648.75" y="122.1543">Board</text><line style="stroke: #A80036; stroke-width: 1.5;" x1="580" x2="722" y1="134" y2="134"/><line style="stroke: #A80036; stroke-width: 1.5;" x1="580" x2="722" y1="142" y2="142"/><ellipse cx="590" cy="153.9023" fill="#84BE84" rx="3" ry="3" style="stroke: #038048; stroke-width: 1.0;"/><text fill="#000000" font-family="sans-serif" font-size="11" lengthAdjust="spacingAndGlyphs" textLength="118" x="599" y="156.2104">getBoard() : Pawn[][]</text><ellipse cx="590" cy="166.707" fill="#84BE84" rx="3" ry="3" style="stroke: #038048; stroke-width: 1.0;"/><text fill="#000000" font-family="sans-serif" font-size="11" lengthAdjust="spacingAndGlyphs" textLength="68" x="599" y="169.0151">setPlayers()</text><ellipse cx="590" cy="179.5117" fill="#84BE84" rx="3" ry="3" style="stroke: #038048; stroke-width: 1.0;"/><text fill="#000000" font-family="sans-serif" font-size="11" lengthAdjust="spacingAndGlyphs" textLength="87" x="599" y="181.8198">initializeBoard()</text><ellipse cx="590" cy="192.3164" fill="#84BE84" rx="3" ry="3" style="stroke: #038048; stroke-width: 1.0;"/><text fill="#000000" font-family="sans-serif" font-size="11" lengthAdjust="spacingAndGlyphs" textLength="98" x="599" y="194.6245">setMainTriangle()</text><!--class BoardAssembler--><rect fill="#FEFECE" filter="url(#fsl6m533jwuaf)" height="73.6094" id="BoardAssembler" style="stroke: #A80036; stroke-width: 1.5;" width="269" x="274.5" y="114.5"/><ellipse cx="353.75" cy="130.5" fill="#ADD1B2" rx="11" ry="11" style="stroke: #A80036; stroke-width: 1.0;"/><path d="M356.0938,126.1719 L356.2656,126.25 C356.4844,125.9375 356.6875,125.8438 356.9844,125.8438 C357.2813,125.8438 357.5625,125.9844 357.7188,126.25 C357.8125,126.4063 357.8281,126.5313 357.8281,126.9688 L357.8281,128.3906 C357.8281,128.8125 357.7969,129 357.6875,129.1563 C357.5156,129.375 357.25,129.5156 356.9844,129.5156 C356.7656,129.5156 356.5313,129.4063 356.3906,129.2656 C356.25,129.1406 356.2188,129.0156 356.1563,128.6094 C356.0625,128.2031 355.8906,127.9844 355.4063,127.7031 C354.9375,127.4531 354.3281,127.2969 353.75,127.2969 C352.0156,127.2969 350.7656,128.6094 350.7656,130.3906 L350.7656,131.4844 C350.7656,133.1875 352.0625,134.2813 354.1094,134.2813 C354.875,134.2813 355.5625,134.1563 355.9844,133.8906 C356.1719,133.7969 356.1719,133.7969 356.625,133.3125 C356.8125,133.125 357.0156,133.0469 357.2344,133.0469 C357.7031,133.0469 358.0938,133.4375 358.0938,133.8906 C358.0938,134.2813 357.7656,134.7344 357.1875,135.1406 C356.4375,135.6875 355.2813,135.9844 354.0625,135.9844 C351.1719,135.9844 349.0625,134.0938 349.0625,131.5156 L349.0625,130.3906 C349.0625,127.6719 351.0625,125.5938 353.6875,125.5938 C354.5625,125.5938 355.1563,125.7344 356.0938,126.1719 Z "/><text fill="#000000" font-family="sans-serif" font-size="12" lengthAdjust="spacingAndGlyphs" textLength="102" x="374.25" y="134.6543">BoardAssembler</text><line style="stroke: #A80036; stroke-width: 1.5;" x1="275.5" x2="542.5" y1="146.5" y2="146.5"/><line style="stroke: #A80036; stroke-width: 1.5;" x1="275.5" x2="542.5" y1="154.5" y2="154.5"/><ellipse cx="285.5" cy="166.4023" fill="#84BE84" rx="3" ry="3" style="stroke: #038048; stroke-width: 1.0;"/><text fill="#000000" font-family="sans-serif" font-size="11" lengthAdjust="spacingAndGlyphs" textLength="103" x="294.5" y="168.7104">BoardAssembler()</text><ellipse cx="285.5" cy="179.207" fill="#84BE84" rx="3" ry="3" style="stroke: #038048; stroke-width: 1.0;"/><text fill="#000000" font-family="sans-serif" font-size="11" lengthAdjust="spacingAndGlyphs" textLength="243" x="294.5" y="181.5151">getBoard(boardBuilder) : Pawn[][] {Board}</text><!--class BoardBuilder--><rect fill="#FEFECE" filter="url(#fsl6m533jwuaf)" height="133.6328" id="BoardBuilder" style="stroke: #A80036; stroke-width: 1.5;" width="144" x="581" y="281"/><ellipse cx="610.4" cy="297" fill="#A9DCDF" rx="11" ry="11" style="stroke: #A80036; stroke-width: 1.0;"/><path d="M611.9781,298.8125 L607.9313,298.8125 L607.5406,299.7969 L607.9313,299.7969 C608.3844,299.7969 608.525,299.8281 608.6969,299.9531 C608.9156,300.125 609.0406,300.375 609.0406,300.6563 C609.0406,300.9375 608.9,301.2344 608.6344,301.375 C608.5094,301.4688 608.2906,301.5 607.9313,301.5 L605.6656,301.5 C604.9156,301.5 604.5406,301.2188 604.5406,300.6563 C604.5406,300.3594 604.6969,300.0781 604.9469,299.9219 C605.1031,299.8125 605.2594,299.7969 605.6813,299.7969 L608.3219,293.2813 L607.2438,293.2813 C606.8063,293.2813 606.6344,293.25 606.4625,293.1406 C606.2438,292.9688 606.1031,292.7188 606.1031,292.4375 C606.1031,292.1563 606.2594,291.875 606.5094,291.7031 C606.6656,291.6094 606.7906,291.5938 607.2438,291.5938 L610.9156,291.5938 L614.3063,299.7969 C614.775,299.7969 614.9313,299.8281 615.1031,299.9688 C615.3219,300.125 615.4625,300.375 615.4625,300.6563 C615.4625,300.9375 615.3063,301.2344 615.0563,301.375 C614.9156,301.4688 614.6969,301.5 614.3375,301.5 L611.9781,301.5 C611.5563,301.5 611.3531,301.4531 611.2125,301.3281 C610.9938,301.1719 610.8531,300.9219 610.8531,300.6563 C610.8531,300.3594 611.0094,300.0781 611.2594,299.9219 C611.4156,299.8125 611.525,299.7969 611.9781,299.7969 L612.3688,299.7969 Z M611.275,297.1094 L609.9469,293.8438 L608.6031,297.1094 Z "/><text fill="#000000" font-family="sans-serif" font-size="12" font-style="italic" lengthAdjust="spacingAndGlyphs" textLength="80" x="627.6" y="301.1543">BoardBuilder</text><line style="stroke: #A80036; stroke-width: 1.5;" x1="582" x2="724" y1="313" y2="313"/><ellipse cx="592" cy="324.9023" fill="none" rx="3" ry="3" style="stroke: #038048; stroke-width: 1.0;"/><text fill="#000000" font-family="sans-serif" font-size="11" lengthAdjust="spacingAndGlyphs" textLength="91" x="601" y="327.2104">board : Pawn[][]</text><ellipse cx="592" cy="337.707" fill="none" rx="3" ry="3" style="stroke: #038048; stroke-width: 1.0;"/><text fill="#000000" font-family="sans-serif" font-size="11" lengthAdjust="spacingAndGlyphs" textLength="98" x="601" y="340.0151">colours : Colours</text><ellipse cx="592" cy="350.5117" fill="#84BE84" rx="3" ry="3" style="stroke: #038048; stroke-width: 1.0;"/><text fill="#000000" font-family="sans-serif" font-size="11" lengthAdjust="spacingAndGlyphs" textLength="82" x="601" y="352.8198">BoardBuilder()</text><ellipse cx="592" cy="380.1211" fill="#84BE84" rx="3" ry="3" style="stroke: #038048; stroke-width: 1.0;"/><text fill="#000000" font-family="sans-serif" font-size="11" lengthAdjust="spacingAndGlyphs" textLength="118" x="601" y="382.4292">getBoard() : Pawn[][]</text><ellipse cx="592" cy="392.9258" fill="#84BE84" rx="3" ry="3" style="stroke: #038048; stroke-width: 1.0;"/><text fill="#000000" font-family="sans-serif" font-size="11" lengthAdjust="spacingAndGlyphs" textLength="87" x="601" y="395.2339">initializeBoard()</text><ellipse cx="592" cy="405.7305" fill="#84BE84" rx="3" ry="3" style="stroke: #038048; stroke-width: 1.0;"/><text fill="#000000" font-family="sans-serif" font-size="11" lengthAdjust="spacingAndGlyphs" textLength="98" x="601" y="408.0386">setMainTriangle()</text><line style="stroke: #A80036; stroke-width: 1.0; stroke-dasharray: 1.0,2.0;" x1="582" x2="609" y1="365.8164" y2="365.8164"/><text fill="#000000" font-family="sans-serif" font-size="11" lengthAdjust="spacingAndGlyphs" textLength="88" x="609" y="369.1245">Board Interface</text><line style="stroke: #A80036; stroke-width: 1.0; stroke-dasharray: 1.0,2.0;" x1="697" x2="724" y1="365.8164" y2="365.8164"/><!--class TwoPlayersBoard--><rect fill="#FEFECE" filter="url(#fsl6m533jwuaf)" height="82.4141" id="TwoPlayersBoard" style="stroke: #A80036; stroke-width: 1.5;" width="138" x="62" y="492"/><ellipse cx="77" cy="508" fill="#ADD1B2" rx="11" ry="11" style="stroke: #A80036; stroke-width: 1.0;"/><path d="M79.3438,503.6719 L79.5156,503.75 C79.7344,503.4375 79.9375,503.3438 80.2344,503.3438 C80.5313,503.3438 80.8125,503.4844 80.9688,503.75 C81.0625,503.9063 81.0781,504.0313 81.0781,504.4688 L81.0781,505.8906 C81.0781,506.3125 81.0469,506.5 80.9375,506.6563 C80.7656,506.875 80.5,507.0156 80.2344,507.0156 C80.0156,507.0156 79.7813,506.9063 79.6406,506.7656 C79.5,506.6406 79.4688,506.5156 79.4063,506.1094 C79.3125,505.7031 79.1406,505.4844 78.6563,505.2031 C78.1875,504.9531 77.5781,504.7969 77,504.7969 C75.2656,504.7969 74.0156,506.1094 74.0156,507.8906 L74.0156,508.9844 C74.0156,510.6875 75.3125,511.7813 77.3594,511.7813 C78.125,511.7813 78.8125,511.6563 79.2344,511.3906 C79.4219,511.2969 79.4219,511.2969 79.875,510.8125 C80.0625,510.625 80.2656,510.5469 80.4844,510.5469 C80.9531,510.5469 81.3438,510.9375 81.3438,511.3906 C81.3438,511.7813 81.0156,512.2344 80.4375,512.6406 C79.6875,513.1875 78.5313,513.4844 77.3125,513.4844 C74.4219,513.4844 72.3125,511.5938 72.3125,509.0156 L72.3125,507.8906 C72.3125,505.1719 74.3125,503.0938 76.9375,503.0938 C77.8125,503.0938 78.4063,503.2344 79.3438,503.6719 Z "/><text fill="#000000" font-family="sans-serif" font-size="12" lengthAdjust="spacingAndGlyphs" textLength="106" x="91" y="512.1543">TwoPlayersBoard</text><line style="stroke: #A80036; stroke-width: 1.5;" x1="63" x2="199" y1="524" y2="524"/><ellipse cx="73" cy="535.9023" fill="#84BE84" rx="3" ry="3" style="stroke: #038048; stroke-width: 1.0;"/><text fill="#000000" font-family="sans-serif" font-size="11" lengthAdjust="spacingAndGlyphs" textLength="107" x="82" y="538.2104">TwoPlayersBoard()</text><ellipse cx="73" cy="565.5117" fill="#84BE84" rx="3" ry="3" style="stroke: #038048; stroke-width: 1.0;"/><text fill="#000000" font-family="sans-serif" font-size="11" lengthAdjust="spacingAndGlyphs" textLength="68" x="82" y="567.8198">setPlayers()</text><line style="stroke: #A80036; stroke-width: 1.0; stroke-dasharray: 1.0,2.0;" x1="63" x2="103" y1="551.207" y2="551.207"/><text fill="#000000" font-family="sans-serif" font-size="11" lengthAdjust="spacingAndGlyphs" textLength="56" x="103" y="554.5151">Overriden</text><line style="stroke: #A80036; stroke-width: 1.0; stroke-dasharray: 1.0,2.0;" x1="159" x2="199" y1="551.207" y2="551.207"/><!--class ThreePlayersBoard--><rect fill="#FEFECE" filter="url(#fsl6m533jwuaf)" height="82.4141" id="ThreePlayersBoard" style="stroke: #A80036; stroke-width: 1.5;" width="150" x="235" y="492"/><ellipse cx="250" cy="508" fill="#ADD1B2" rx="11" ry="11" style="stroke: #A80036; stroke-width: 1.0;"/><path d="M252.3438,503.6719 L252.5156,503.75 C252.7344,503.4375 252.9375,503.3438 253.2344,503.3438 C253.5313,503.3438 253.8125,503.4844 253.9688,503.75 C254.0625,503.9063 254.0781,504.0313 254.0781,504.4688 L254.0781,505.8906 C254.0781,506.3125 254.0469,506.5 253.9375,506.6563 C253.7656,506.875 253.5,507.0156 253.2344,507.0156 C253.0156,507.0156 252.7813,506.9063 252.6406,506.7656 C252.5,506.6406 252.4688,506.5156 252.4063,506.1094 C252.3125,505.7031 252.1406,505.4844 251.6563,505.2031 C251.1875,504.9531 250.5781,504.7969 250,504.7969 C248.2656,504.7969 247.0156,506.1094 247.0156,507.8906 L247.0156,508.9844 C247.0156,510.6875 248.3125,511.7813 250.3594,511.7813 C251.125,511.7813 251.8125,511.6563 252.2344,511.3906 C252.4219,511.2969 252.4219,511.2969 252.875,510.8125 C253.0625,510.625 253.2656,510.5469 253.4844,510.5469 C253.9531,510.5469 254.3438,510.9375 254.3438,511.3906 C254.3438,511.7813 254.0156,512.2344 253.4375,512.6406 C252.6875,513.1875 251.5313,513.4844 250.3125,513.4844 C247.4219,513.4844 245.3125,511.5938 245.3125,509.0156 L245.3125,507.8906 C245.3125,505.1719 247.3125,503.0938 249.9375,503.0938 C250.8125,503.0938 251.4063,503.2344 252.3438,503.6719 Z "/><text fill="#000000" font-family="sans-serif" font-size="12" lengthAdjust="spacingAndGlyphs" textLength="118" x="264" y="512.1543">ThreePlayersBoard</text><line style="stroke: #A80036; stroke-width: 1.5;" x1="236" x2="384" y1="524" y2="524"/><ellipse cx="246" cy="535.9023" fill="#84BE84" rx="3" ry="3" style="stroke: #038048; stroke-width: 1.0;"/><text fill="#000000" font-family="sans-serif" font-size="11" lengthAdjust="spacingAndGlyphs" textLength="117" x="255" y="538.2104">ThreePlayersBoard()</text><ellipse cx="246" cy="565.5117" fill="#84BE84" rx="3" ry="3" style="stroke: #038048; stroke-width: 1.0;"/><text fill="#000000" font-family="sans-serif" font-size="11" lengthAdjust="spacingAndGlyphs" textLength="68" x="255" y="567.8198">setPlayers()</text><line style="stroke: #A80036; stroke-width: 1.0; stroke-dasharray: 1.0,2.0;" x1="236" x2="282" y1="551.207" y2="551.207"/><text fill="#000000" font-family="sans-serif" font-size="11" lengthAdjust="spacingAndGlyphs" textLength="56" x="282" y="554.5151">Overriden</text><line style="stroke: #A80036; stroke-width: 1.0; stroke-dasharray: 1.0,2.0;" x1="338" x2="384" y1="551.207" y2="551.207"/><!--class FourPlayersBoard--><rect fill="#FEFECE" filter="url(#fsl6m533jwuaf)" height="82.4141" id="FourPlayersBoard" style="stroke: #A80036; stroke-width: 1.5;" width="142" x="420" y="492"/><ellipse cx="435" cy="508" fill="#ADD1B2" rx="11" ry="11" style="stroke: #A80036; stroke-width: 1.0;"/><path d="M437.3438,503.6719 L437.5156,503.75 C437.7344,503.4375 437.9375,503.3438 438.2344,503.3438 C438.5313,503.3438 438.8125,503.4844 438.9688,503.75 C439.0625,503.9063 439.0781,504.0313 439.0781,504.4688 L439.0781,505.8906 C439.0781,506.3125 439.0469,506.5 438.9375,506.6563 C438.7656,506.875 438.5,507.0156 438.2344,507.0156 C438.0156,507.0156 437.7813,506.9063 437.6406,506.7656 C437.5,506.6406 437.4688,506.5156 437.4063,506.1094 C437.3125,505.7031 437.1406,505.4844 436.6563,505.2031 C436.1875,504.9531 435.5781,504.7969 435,504.7969 C433.2656,504.7969 432.0156,506.1094 432.0156,507.8906 L432.0156,508.9844 C432.0156,510.6875 433.3125,511.7813 435.3594,511.7813 C436.125,511.7813 436.8125,511.6563 437.2344,511.3906 C437.4219,511.2969 437.4219,511.2969 437.875,510.8125 C438.0625,510.625 438.2656,510.5469 438.4844,510.5469 C438.9531,510.5469 439.3438,510.9375 439.3438,511.3906 C439.3438,511.7813 439.0156,512.2344 438.4375,512.6406 C437.6875,513.1875 436.5313,513.4844 435.3125,513.4844 C432.4219,513.4844 430.3125,511.5938 430.3125,509.0156 L430.3125,507.8906 C430.3125,505.1719 432.3125,503.0938 434.9375,503.0938 C435.8125,503.0938 436.4063,503.2344 437.3438,503.6719 Z "/><text fill="#000000" font-family="sans-serif" font-size="12" lengthAdjust="spacingAndGlyphs" textLength="110" x="449" y="512.1543">FourPlayersBoard</text><line style="stroke: #A80036; stroke-width: 1.5;" x1="421" x2="561" y1="524" y2="524"/><ellipse cx="431" cy="535.9023" fill="#84BE84" rx="3" ry="3" style="stroke: #038048; stroke-width: 1.0;"/><text fill="#000000" font-family="sans-serif" font-size="11" lengthAdjust="spacingAndGlyphs" textLength="109" x="440" y="538.2104">FourPlayersBoard()</text><ellipse cx="431" cy="565.5117" fill="#84BE84" rx="3" ry="3" style="stroke: #038048; stroke-width: 1.0;"/><text fill="#000000" font-family="sans-serif" font-size="11" lengthAdjust="spacingAndGlyphs" textLength="68" x="440" y="567.8198">setPlayers()</text><line style="stroke: #A80036; stroke-width: 1.0; stroke-dasharray: 1.0,2.0;" x1="421" x2="463" y1="551.207" y2="551.207"/><text fill="#000000" font-family="sans-serif" font-size="11" lengthAdjust="spacingAndGlyphs" textLength="56" x="463" y="554.5151">Overriden</text><line style="stroke: #A80036; stroke-width: 1.0; stroke-dasharray: 1.0,2.0;" x1="519" x2="561" y1="551.207" y2="551.207"/><!--class SixPlayersBoard--><rect fill="#FEFECE" filter="url(#fsl6m533jwuaf)" height="82.4141" id="SixPlayersBoard" style="stroke: #A80036; stroke-width: 1.5;" width="131" x="597.5" y="492"/><ellipse cx="612.5" cy="508" fill="#ADD1B2" rx="11" ry="11" style="stroke: #A80036; stroke-width: 1.0;"/><path d="M614.8438,503.6719 L615.0156,503.75 C615.2344,503.4375 615.4375,503.3438 615.7344,503.3438 C616.0313,503.3438 616.3125,503.4844 616.4688,503.75 C616.5625,503.9063 616.5781,504.0313 616.5781,504.4688 L616.5781,505.8906 C616.5781,506.3125 616.5469,506.5 616.4375,506.6563 C616.2656,506.875 616,507.0156 615.7344,507.0156 C615.5156,507.0156 615.2813,506.9063 615.1406,506.7656 C615,506.6406 614.9688,506.5156 614.9063,506.1094 C614.8125,505.7031 614.6406,505.4844 614.1563,505.2031 C613.6875,504.9531 613.0781,504.7969 612.5,504.7969 C610.7656,504.7969 609.5156,506.1094 609.5156,507.8906 L609.5156,508.9844 C609.5156,510.6875 610.8125,511.7813 612.8594,511.7813 C613.625,511.7813 614.3125,511.6563 614.7344,511.3906 C614.9219,511.2969 614.9219,511.2969 615.375,510.8125 C615.5625,510.625 615.7656,510.5469 615.9844,510.5469 C616.4531,510.5469 616.8438,510.9375 616.8438,511.3906 C616.8438,511.7813 616.5156,512.2344 615.9375,512.6406 C615.1875,513.1875 614.0313,513.4844 612.8125,513.4844 C609.9219,513.4844 607.8125,511.5938 607.8125,509.0156 L607.8125,507.8906 C607.8125,505.1719 609.8125,503.0938 612.4375,503.0938 C613.3125,503.0938 613.9063,503.2344 614.8438,503.6719 Z "/><text fill="#000000" font-family="sans-serif" font-size="12" lengthAdjust="spacingAndGlyphs" textLength="99" x="626.5" y="512.1543">SixPlayersBoard</text><line style="stroke: #A80036; stroke-width: 1.5;" x1="598.5" x2="727.5" y1="524" y2="524"/><ellipse cx="608.5" cy="535.9023" fill="#84BE84" rx="3" ry="3" style="stroke: #038048; stroke-width: 1.0;"/><text fill="#000000" font-family="sans-serif" font-size="11" lengthAdjust="spacingAndGlyphs" textLength="101" x="617.5" y="538.2104">SixPlayersBoard()</text><ellipse cx="608.5" cy="565.5117" fill="#84BE84" rx="3" ry="3" style="stroke: #038048; stroke-width: 1.0;"/><text fill="#000000" font-family="sans-serif" font-size="11" lengthAdjust="spacingAndGlyphs" textLength="68" x="617.5" y="567.8198">setPlayers()</text><line style="stroke: #A80036; stroke-width: 1.0; stroke-dasharray: 1.0,2.0;" x1="598.5" x2="635" y1="551.207" y2="551.207"/><text fill="#000000" font-family="sans-serif" font-size="11" lengthAdjust="spacingAndGlyphs" textLength="56" x="635" y="554.5151">Overriden</text><line style="stroke: #A80036; stroke-width: 1.0; stroke-dasharray: 1.0,2.0;" x1="691" x2="727.5" y1="551.207" y2="551.207"/><!--class GraphicBoard--><rect fill="#FEFECE" filter="url(#fsl6m533jwuaf)" height="124.8281" id="GraphicBoard" style="stroke: #A80036; stroke-width: 1.5;" width="270" x="276" y="285.5"/><ellipse cx="364.25" cy="301.5" fill="#ADD1B2" rx="11" ry="11" style="stroke: #A80036; stroke-width: 1.0;"/><path d="M366.5938,297.1719 L366.7656,297.25 C366.9844,296.9375 367.1875,296.8438 367.4844,296.8438 C367.7813,296.8438 368.0625,296.9844 368.2188,297.25 C368.3125,297.4063 368.3281,297.5313 368.3281,297.9688 L368.3281,299.3906 C368.3281,299.8125 368.2969,300 368.1875,300.1563 C368.0156,300.375 367.75,300.5156 367.4844,300.5156 C367.2656,300.5156 367.0313,300.4063 366.8906,300.2656 C366.75,300.1406 366.7188,300.0156 366.6563,299.6094 C366.5625,299.2031 366.3906,298.9844 365.9063,298.7031 C365.4375,298.4531 364.8281,298.2969 364.25,298.2969 C362.5156,298.2969 361.2656,299.6094 361.2656,301.3906 L361.2656,302.4844 C361.2656,304.1875 362.5625,305.2813 364.6094,305.2813 C365.375,305.2813 366.0625,305.1563 366.4844,304.8906 C366.6719,304.7969 366.6719,304.7969 367.125,304.3125 C367.3125,304.125 367.5156,304.0469 367.7344,304.0469 C368.2031,304.0469 368.5938,304.4375 368.5938,304.8906 C368.5938,305.2813 368.2656,305.7344 367.6875,306.1406 C366.9375,306.6875 365.7813,306.9844 364.5625,306.9844 C361.6719,306.9844 359.5625,305.0938 359.5625,302.5156 L359.5625,301.3906 C359.5625,298.6719 361.5625,296.5938 364.1875,296.5938 C365.0625,296.5938 365.6563,296.7344 366.5938,297.1719 Z "/><text fill="#000000" font-family="sans-serif" font-size="12" lengthAdjust="spacingAndGlyphs" textLength="85" x="384.75" y="305.6543">GraphicBoard</text><line style="stroke: #A80036; stroke-width: 1.5;" x1="277" x2="545" y1="317.5" y2="317.5"/><rect fill="none" height="6" style="stroke: #C82930; stroke-width: 1.0;" width="6" x="284" y="326.4023"/><text fill="#000000" font-family="sans-serif" font-size="11" lengthAdjust="spacingAndGlyphs" textLength="91" x="296" y="331.7104">board : Pawn[][]</text><rect fill="none" height="6" style="stroke: #C82930; stroke-width: 1.0;" width="6" x="284" y="339.207"/><text fill="#000000" font-family="sans-serif" font-size="11" lengthAdjust="spacingAndGlyphs" textLength="119" x="296" y="344.5151">boardBuilder : Board</text><rect fill="none" height="6" style="stroke: #C82930; stroke-width: 1.0;" width="6" x="284" y="352.0117"/><text fill="#000000" font-family="sans-serif" font-size="11" lengthAdjust="spacingAndGlyphs" textLength="244" x="296" y="357.3198">graphicBoardAssembler : BoardAssembler</text><line style="stroke: #A80036; stroke-width: 1.5;" x1="277" x2="545" y1="363.9141" y2="363.9141"/><ellipse cx="287" cy="375.8164" fill="#84BE84" rx="3" ry="3" style="stroke: #038048; stroke-width: 1.0;"/><text fill="#000000" font-family="sans-serif" font-size="11" lengthAdjust="spacingAndGlyphs" textLength="225" x="296" y="378.1245">GraphicBoard(numberOfPlayers) : {int}</text><ellipse cx="287" cy="388.6211" fill="#84BE84" rx="3" ry="3" style="stroke: #038048; stroke-width: 1.0;"/><text fill="#000000" font-family="sans-serif" font-size="11" lengthAdjust="spacingAndGlyphs" textLength="118" x="296" y="390.9292">getBoard() : Pawn[][]</text><ellipse cx="287" cy="401.4258" fill="#84BE84" rx="3" ry="3" style="stroke: #038048; stroke-width: 1.0;"/><text fill="#000000" font-family="sans-serif" font-size="11" lengthAdjust="spacingAndGlyphs" textLength="172" x="296" y="403.7339">getPawn(x, y) : Pawn {int, int}</text><ellipse cx="1188" cy="348" fill="#FEFECE" filter="url(#fsl6m533jwuaf)" rx="5" ry="5" style="stroke: #A80036; stroke-width: 1.5;"/><text fill="#000000" font-family="sans-serif" font-size="12" lengthAdjust="spacingAndGlyphs" textLength="58" x="1159" y="364.1387">HashMap</text><ellipse cx="1105" cy="348" fill="#FEFECE" filter="url(#fsl6m533jwuaf)" rx="5" ry="5" style="stroke: #A80036; stroke-width: 1.5;"/><text fill="#000000" font-family="sans-serif" font-size="12" lengthAdjust="spacingAndGlyphs" textLength="34" x="1088" y="364.1387">Circle</text><!--link Board to BoardBuilder--><path d="M584.654,218.871 C580.604,229.145 579.419,240.01 583,251 C586.355,261.296 591.278,271.407 596.985,280.975 " fill="none" id="Board-BoardBuilder" style="stroke: #A80036; stroke-width: 1.0;"/><polygon fill="none" points="578.73,215.124,594.626,201.113,590.937,221.979,578.73,215.124" style="stroke: #A80036; stroke-width: 1.0;"/><text fill="#000000" font-family="sans-serif" font-size="13" lengthAdjust="spacingAndGlyphs" textLength="76" x="584" y="247.0669">Implements</text><!--link Colours to BoardBuilder--><path d="M931.018,204.245 C911.129,220.338 888.303,237.407 866,251 C825.509,275.679 777.58,297.838 737.45,314.632 " fill="none" id="Colours-BoardBuilder" style="stroke: #A80036; stroke-width: 1.0;"/><polygon fill="#A80036" points="725.264,319.668,732.3369,321.0728,736.3541,315.0843,729.2811,313.6795,725.264,319.668" style="stroke: #A80036; stroke-width: 1.0;"/><text fill="#000000" font-family="sans-serif" font-size="13" lengthAdjust="spacingAndGlyphs" textLength="80" x="893" y="247.0669">Composition</text><text fill="#000000" font-family="sans-serif" font-size="13" lengthAdjust="spacingAndGlyphs" textLength="8" x="914.5548" y="224.4057">1</text><text fill="#000000" font-family="sans-serif" font-size="13" lengthAdjust="spacingAndGlyphs" textLength="7" x="733.0772" y="313.0655">*</text><!--link Pawn to BoardBuilder--><path d="M803.12,188.613 C793.598,208.145 780.363,232.073 765,251 C756.041,262.037 745.702,272.801 735.002,282.892 " fill="none" id="Pawn-BoardBuilder" style="stroke: #A80036; stroke-width: 1.0;"/><polygon fill="#A80036" points="725.103,291.958,732.2293,290.8551,733.952,283.8528,726.8258,284.9557,725.103,291.958" style="stroke: #A80036; stroke-width: 1.0;"/><text fill="#000000" font-family="sans-serif" font-size="13" lengthAdjust="spacingAndGlyphs" textLength="80" x="777" y="247.0669">Composition</text><text fill="#000000" font-family="sans-serif" font-size="13" lengthAdjust="spacingAndGlyphs" textLength="7" x="792.9102" y="208.1123">*</text><text fill="#000000" font-family="sans-serif" font-size="13" lengthAdjust="spacingAndGlyphs" textLength="8" x="732.9511" y="282.4979">1</text><!--link BoardBuilder to TwoPlayersBoard--><path d="M562.239,413.765 C476.307,446.137 445.484,425.96 364,445 C297.208,460.607 280.89,467.043 217,492 C211.478,494.157 205.809,496.498 200.143,498.929 " fill="none" id="BoardBuilder-TwoPlayersBoard" style="stroke: #A80036; stroke-width: 1.0;"/><polygon fill="none" points="559.651,407.261,580.819,406.296,564.873,420.251,559.651,407.261" style="stroke: #A80036; stroke-width: 1.0;"/><text fill="#000000" font-family="sans-serif" font-size="13" lengthAdjust="spacingAndGlyphs" textLength="71" x="365" y="458.0669">Inheritance</text><!--link BoardBuilder to ThreePlayersBoard--><path d="M563.277,414.854 C563.185,414.903 563.092,414.951 563,415 C527.172,433.844 514.159,428.94 477,445 C444.891,458.878 410.448,476.353 381.232,491.995 " fill="none" id="BoardBuilder-ThreePlayersBoard" style="stroke: #A80036; stroke-width: 1.0;"/><polygon fill="none" points="559.935,408.701,580.751,404.738,566.949,420.817,559.935,408.701" style="stroke: #A80036; stroke-width: 1.0;"/><text fill="#000000" font-family="sans-serif" font-size="13" lengthAdjust="spacingAndGlyphs" textLength="71" x="478" y="458.0669">Inheritance</text><!--link BoardBuilder to FourPlayersBoard--><path d="M581.225,430.079 C562.271,451.49 542.634,473.673 526.539,491.854 " fill="none" id="BoardBuilder-FourPlayersBoard" style="stroke: #A80036; stroke-width: 1.0;"/><polygon fill="none" points="576.016,425.403,594.514,415.067,586.499,434.682,576.016,425.403" style="stroke: #A80036; stroke-width: 1.0;"/><text fill="#000000" font-family="sans-serif" font-size="13" lengthAdjust="spacingAndGlyphs" textLength="71" x="569" y="458.0669">Inheritance</text><!--link BoardBuilder to SixPlayersBoard--><path d="M657.702,435.056 C658.787,454.896 659.89,475.078 660.806,491.854 " fill="none" id="BoardBuilder-SixPlayersBoard" style="stroke: #A80036; stroke-width: 1.0;"/><polygon fill="none" points="650.712,435.419,656.61,415.067,664.691,434.655,650.712,435.419" style="stroke: #A80036; stroke-width: 1.0;"/><text fill="#000000" font-family="sans-serif" font-size="13" lengthAdjust="spacingAndGlyphs" textLength="71" x="660" y="458.0669">Inheritance</text><!--link Board to GraphicBoard--><path d="M591.057,201.079 C562.741,224.026 528.414,251.846 497.358,277.014 " fill="none" id="Board-GraphicBoard" style="stroke: #A80036; stroke-width: 1.0;"/><polygon fill="#A80036" points="486.965,285.437,494.1449,284.7673,496.2883,277.8821,489.1083,278.5518,486.965,285.437" style="stroke: #A80036; stroke-width: 1.0;"/><text fill="#000000" font-family="sans-serif" font-size="13" lengthAdjust="spacingAndGlyphs" textLength="8" x="574.065" y="221.1666">1</text><text fill="#000000" font-family="sans-serif" font-size="13" lengthAdjust="spacingAndGlyphs" textLength="8" x="487.286" y="274.4205">1</text><!--link BoardAssembler to GraphicBoard--><path d="M409.371,188.628 C409.612,212.053 409.935,243.436 410.23,272.084 " fill="none" id="BoardAssembler-GraphicBoard" style="stroke: #A80036; stroke-width: 1.0;"/><polygon fill="#A80036" points="410.367,285.448,414.3048,279.407,410.243,273.4486,406.3052,279.4896,410.367,285.448" style="stroke: #A80036; stroke-width: 1.0;"/><text fill="#000000" font-family="sans-serif" font-size="13" lengthAdjust="spacingAndGlyphs" textLength="8" x="400.7699" y="208.1298">1</text><text fill="#000000" font-family="sans-serif" font-size="13" lengthAdjust="spacingAndGlyphs" textLength="8" x="401.8313" y="274.4327">1</text><!--link Pawn to GraphicBoard--><path d="M767.892,188.602 C760.264,193.835 752.458,199.104 745,204 C711.8,225.796 705.347,234.993 669,251 C624.191,270.733 609.114,264.546 563,281 C561.525,281.526 560.043,282.06 558.557,282.601 " fill="none" id="Pawn-GraphicBoard" style="stroke: #A80036; stroke-width: 1.0;"/><polygon fill="#A80036" points="546.13,287.234,553.1491,288.8868,557.3744,283.0432,550.3553,281.3905,546.13,287.234" style="stroke: #A80036; stroke-width: 1.0;"/><text fill="#000000" font-family="sans-serif" font-size="13" lengthAdjust="spacingAndGlyphs" textLength="7" x="751.8476" y="208.0994">*</text><text fill="#000000" font-family="sans-serif" font-size="13" lengthAdjust="spacingAndGlyphs" textLength="8" x="554.1735" y="280.3631">1</text><!--link Colours to Colourslol416703--><path d="M1068.01,178.257 C1096.78,191.098 1127.55,209.284 1149,234 C1178.92,268.484 1186.22,327.152 1187.68,342.97 " fill="none" id="Colours-Colourslol416703" style="stroke: #A80036; stroke-width: 1.0;"/><text fill="#000000" font-family="sans-serif" font-size="13" lengthAdjust="spacingAndGlyphs" textLength="154" x="1161" y="247.0669">Inherintance&lt;int,Color&gt;</text><!--link Pawn to Pawnlol416706--><path d="M865.828,188.601 C874.834,194.383 884.447,199.828 894,204 C949.531,228.253 976.792,200.073 1027,234 C1070.85,263.629 1097.3,326.848 1103.56,343.118 " fill="none" id="Pawn-Pawnlol416706" style="stroke: #A80036; stroke-width: 1.0;"/><text fill="#000000" font-family="sans-serif" font-size="13" lengthAdjust="spacingAndGlyphs" textLength="79" x="1047" y="247.0669">Inherintance</text><!--
@startuml
package Client {
  package Board {
    interface Board {
      +getBoard() : Pawn[][]
      +setPlayers()
      +initializeBoard()
      +setMainTriangle()
    }
    
    class BoardAssembler {
      +BoardAssembler()
      +getBoard(boardBuilder) : Pawn[][] {Board}
    }
    
    abstract class BoardBuilder {
      +board : Pawn[][]
      +colours : Colours
      +BoardBuilder()
      .. Board Interface ..
      +getBoard() : Pawn[][]
      +initializeBoard()
      +setMainTriangle()
    }
    
    class TwoPlayersBoard {
      +TwoPlayersBoard()
      .. Overriden ..
      +setPlayers()
    }
    
    class ThreePlayersBoard {
      +ThreePlayersBoard()
      .. Overriden ..
      +setPlayers()
    }
    
    class FourPlayersBoard {
      +FourPlayersBoard()
      .. Overriden ..
      +setPlayers()
    }
    
    class SixPlayersBoard {
      +SixPlayersBoard()
      .. Overriden ..
      +setPlayers()
    }
    
    class GraphicBoard {
      -board : Pawn[][]
      -boardBuilder : Board
      -graphicBoardAssembler : BoardAssembler
      +GraphicBoard(numberOfPlayers) : {int}
      +getBoard() : Pawn[][]
      +getPawn(x, y) : Pawn {int, int}
    }
  }
  
  Class Colours <<Singleton>> {
    -{static} instance : Colours
    -Colours()
    +{static} getInstance() : Colours
    -initialize()
  }
  
  class Pawn {
    -{static} radius : final int
    +Pawn()
  }
  
}

BoardBuilder -up-|> Board : Implements
BoardBuilder "*" *-up- "1" Colours : Composition
BoardBuilder "1" *-up- "*" Pawn : Composition

TwoPlayersBoard -up-|> BoardBuilder : Inheritance
ThreePlayersBoard -up-|> BoardBuilder : Inheritance
FourPlayersBoard -up-|> BoardBuilder : Inheritance
SixPlayersBoard -up-|> BoardBuilder : Inheritance

GraphicBoard "1" *-up- "1" Board
GraphicBoard "1" *-up- "1" BoardAssembler
GraphicBoard "1" *-up- "*" Pawn


Colours - -() HashMap : Inherintance<int,Color>

Pawn - -() Circle : Inherintance
@enduml

PlantUML version 1.2018.15beta2(Unknown compile time)
(GPL source distribution)
Java Runtime: Java(TM) SE Runtime Environment
JVM: Java HotSpot(TM) 64-Bit Server VM
Java Version: 1.7.0_25-b15
Operating System: Linux
Default Encoding: UTF-8
Language: en
Country: US
--></g></svg>