<?xml version="1.0" encoding="UTF-8" standalone="no"?><svg xmlns="http://www.w3.org/2000/svg" xmlns:xlink="http://www.w3.org/1999/xlink" contentScriptType="application/ecmascript" contentStyleType="text/css" height="728px" preserveAspectRatio="none" style="width:1186px;height:728px;" version="1.1" viewBox="0 0 1186 728" width="1186px" zoomAndPan="magnify"><defs><filter height="300%" id="f1tpiyf36sv9ib" width="300%" x="-1" y="-1"><feGaussianBlur result="blurOut" stdDeviation="2.0"/><feColorMatrix in="blurOut" result="blurOut2" type="matrix" values="0 0 0 0 0 0 0 0 0 0 0 0 0 0 0 0 0 0 .4 0"/><feOffset dx="4.0" dy="4.0" in="blurOut2" result="blurOut3"/><feBlend in="SourceGraphic" in2="blurOut3" mode="normal"/></filter></defs><g><!--cluster Server--><polygon fill="#FFFFFF" filter="url(#f1tpiyf36sv9ib)" points="22,24,81,24,88,46.2969,1164,46.2969,1164,716,22,716,22,24" style="stroke: #000000; stroke-width: 1.5;"/><line style="stroke: #000000; stroke-width: 1.5;" x1="22" x2="88" y1="46.2969" y2="46.2969"/><text fill="#000000" font-family="sans-serif" font-size="14" font-weight="bold" lengthAdjust="spacingAndGlyphs" textLength="53" x="26" y="38.9951">Server</text><!--class Field--><rect fill="#FEFECE" filter="url(#f1tpiyf36sv9ib)" height="188.8516" id="Field" style="stroke: #A80036; stroke-width: 1.5;" width="320" x="828" y="296"/><ellipse cx="969.25" cy="312" fill="#ADD1B2" rx="11" ry="11" style="stroke: #A80036; stroke-width: 1.0;"/><path d="M971.5938,307.6719 L971.7656,307.75 C971.9844,307.4375 972.1875,307.3438 972.4844,307.3438 C972.7813,307.3438 973.0625,307.4844 973.2188,307.75 C973.3125,307.9063 973.3281,308.0313 973.3281,308.4688 L973.3281,309.8906 C973.3281,310.3125 973.2969,310.5 973.1875,310.6563 C973.0156,310.875 972.75,311.0156 972.4844,311.0156 C972.2656,311.0156 972.0313,310.9063 971.8906,310.7656 C971.75,310.6406 971.7188,310.5156 971.6563,310.1094 C971.5625,309.7031 971.3906,309.4844 970.9063,309.2031 C970.4375,308.9531 969.8281,308.7969 969.25,308.7969 C967.5156,308.7969 966.2656,310.1094 966.2656,311.8906 L966.2656,312.9844 C966.2656,314.6875 967.5625,315.7813 969.6094,315.7813 C970.375,315.7813 971.0625,315.6563 971.4844,315.3906 C971.6719,315.2969 971.6719,315.2969 972.125,314.8125 C972.3125,314.625 972.5156,314.5469 972.7344,314.5469 C973.2031,314.5469 973.5938,314.9375 973.5938,315.3906 C973.5938,315.7813 973.2656,316.2344 972.6875,316.6406 C971.9375,317.1875 970.7813,317.4844 969.5625,317.4844 C966.6719,317.4844 964.5625,315.5938 964.5625,313.0156 L964.5625,311.8906 C964.5625,309.1719 966.5625,307.0938 969.1875,307.0938 C970.0625,307.0938 970.6563,307.2344 971.5938,307.6719 Z "/><text fill="#000000" font-family="sans-serif" font-size="12" lengthAdjust="spacingAndGlyphs" textLength="29" x="989.75" y="316.1543">Field</text><line style="stroke: #A80036; stroke-width: 1.5;" x1="829" x2="1147" y1="328" y2="328"/><ellipse cx="839" cy="339.9023" fill="none" rx="3" ry="3" style="stroke: #038048; stroke-width: 1.0;"/><text fill="#000000" font-family="sans-serif" font-size="11" lengthAdjust="spacingAndGlyphs" textLength="97" x="848" y="342.2104">isPawn : boolean</text><ellipse cx="839" cy="352.707" fill="none" rx="3" ry="3" style="stroke: #038048; stroke-width: 1.0;"/><text fill="#000000" font-family="sans-serif" font-size="11" lengthAdjust="spacingAndGlyphs" textLength="70" x="848" y="355.0151">color : Color</text><ellipse cx="839" cy="365.5117" fill="none" rx="3" ry="3" style="stroke: #038048; stroke-width: 1.0;"/><text fill="#000000" font-family="sans-serif" font-size="11" lengthAdjust="spacingAndGlyphs" textLength="96" x="848" y="367.8198">startSide : Sides</text><ellipse cx="839" cy="378.3164" fill="none" rx="3" ry="3" style="stroke: #038048; stroke-width: 1.0;"/><text fill="#000000" font-family="sans-serif" font-size="11" lengthAdjust="spacingAndGlyphs" textLength="88" x="848" y="380.6245">winSide : Sides</text><ellipse cx="839" cy="391.1211" fill="none" rx="3" ry="3" style="stroke: #038048; stroke-width: 1.0;"/><text fill="#000000" font-family="sans-serif" font-size="11" lengthAdjust="spacingAndGlyphs" textLength="28" x="848" y="393.4292">x: int</text><ellipse cx="839" cy="403.9258" fill="none" rx="3" ry="3" style="stroke: #038048; stroke-width: 1.0;"/><text fill="#000000" font-family="sans-serif" font-size="11" lengthAdjust="spacingAndGlyphs" textLength="28" x="848" y="406.2339">y :int</text><line style="stroke: #A80036; stroke-width: 1.5;" x1="829" x2="1147" y1="412.8281" y2="412.8281"/><ellipse cx="839" cy="424.7305" fill="#84BE84" rx="3" ry="3" style="stroke: #038048; stroke-width: 1.0;"/><text fill="#000000" font-family="sans-serif" font-size="11" lengthAdjust="spacingAndGlyphs" textLength="116" x="848" y="427.0386">Field(x, y) : {int, int}</text><ellipse cx="839" cy="437.5352" fill="#84BE84" rx="3" ry="3" style="stroke: #038048; stroke-width: 1.0;"/><text fill="#000000" font-family="sans-serif" font-size="11" lengthAdjust="spacingAndGlyphs" textLength="294" x="848" y="439.8433">Field(color, start, isPawn) : {Color, Sides, boolean}</text><ellipse cx="839" cy="450.3398" fill="#84BE84" rx="3" ry="3" style="stroke: #038048; stroke-width: 1.0;"/><text fill="#000000" font-family="sans-serif" font-size="11" lengthAdjust="spacingAndGlyphs" textLength="167" x="848" y="452.6479">setPawn(is) : Field {boolean}</text><ellipse cx="839" cy="463.1445" fill="#84BE84" rx="3" ry="3" style="stroke: #038048; stroke-width: 1.0;"/><text fill="#000000" font-family="sans-serif" font-size="11" lengthAdjust="spacingAndGlyphs" textLength="191" x="848" y="465.4526">setStartSide(side) : Field {Sides}</text><ellipse cx="839" cy="475.9492" fill="#84BE84" rx="3" ry="3" style="stroke: #038048; stroke-width: 1.0;"/><text fill="#000000" font-family="sans-serif" font-size="11" lengthAdjust="spacingAndGlyphs" textLength="170" x="848" y="478.2573">setColor(color) : Field {Color}</text><!--class Sides--><rect fill="#FEFECE" filter="url(#f1tpiyf36sv9ib)" height="176.0469" id="Sides" style="stroke: #A80036; stroke-width: 1.5;" width="174" x="901" y="59"/><ellipse cx="966.75" cy="75" fill="#EB937F" rx="11" ry="11" style="stroke: #A80036; stroke-width: 1.0;"/><path d="M965.0469,75.875 L965.0469,78.2969 L969.4063,78.2969 L969.4063,77.4219 C969.4063,76.9375 969.4375,76.7969 969.5469,76.6406 C969.7188,76.3906 969.9844,76.2813 970.25,76.2813 C970.5313,76.2813 970.8125,76.4375 970.9844,76.6875 C971.0625,76.8438 971.0938,76.9844 971.0938,77.4219 L971.0938,80 L963.0938,80 C962.7031,80 962.4688,79.9531 962.3281,79.8281 C962.1094,79.6719 961.9688,79.4219 961.9688,79.1563 C961.9688,78.8594 962.125,78.5938 962.375,78.4219 C962.5313,78.3125 962.6875,78.2969 963.0938,78.2969 L963.3438,78.2969 L963.3438,71.7813 L963.0938,71.7813 C962.6719,71.7813 962.4844,71.75 962.3281,71.6406 C962.1094,71.4688 961.9688,71.2188 961.9688,70.9375 C961.9688,70.6563 962.125,70.3594 962.375,70.2031 C962.5313,70.1094 962.6563,70.0938 963.0938,70.0938 L970.7188,70.0938 L970.7188,72.6406 C970.7188,73.1094 970.6875,73.25 970.5781,73.4219 C970.4063,73.6406 970.1406,73.7813 969.875,73.7813 C969.5938,73.7813 969.3125,73.625 969.1406,73.375 C969.0625,73.2188 969.0313,73.0469 969.0313,72.6406 L969.0313,71.7813 L965.0469,71.7813 L965.0469,74.1875 L966.5,74.1875 L966.5,74.0625 C966.5,73.6094 966.5313,73.4531 966.6406,73.2813 C966.8125,73.0625 967.0781,72.9219 967.3281,72.9219 C967.7813,72.9219 968.0938,73.2344 968.1563,73.7031 C968.1719,73.8594 968.1719,73.9063 968.1719,74.0625 L968.1719,75.9844 C968.1719,76.4375 968.1406,76.5938 968.0156,76.75 C967.8594,76.9688 967.5938,77.1094 967.3438,77.1094 C967.0469,77.1094 966.7656,76.9531 966.6094,76.7031 C966.5313,76.5469 966.5,76.3906 966.5,75.9844 L966.5,75.875 Z "/><text fill="#000000" font-family="sans-serif" font-size="12" lengthAdjust="spacingAndGlyphs" textLength="34" x="987.25" y="79.1543">Sides</text><line style="stroke: #A80036; stroke-width: 1.5;" x1="902" x2="1074" y1="91" y2="91"/><text fill="#000000" font-family="sans-serif" font-size="11" lengthAdjust="spacingAndGlyphs" textLength="23" x="921" y="105.2104">TOP</text><text fill="#000000" font-family="sans-serif" font-size="11" lengthAdjust="spacingAndGlyphs" textLength="63" x="921" y="118.0151">RIGHT_TOP</text><text fill="#000000" font-family="sans-serif" font-size="11" lengthAdjust="spacingAndGlyphs" textLength="89" x="921" y="130.8198">RIGHT_BOTTOM</text><text fill="#000000" font-family="sans-serif" font-size="11" lengthAdjust="spacingAndGlyphs" textLength="49" x="921" y="143.6245">BOTTOM</text><text fill="#000000" font-family="sans-serif" font-size="11" lengthAdjust="spacingAndGlyphs" textLength="81" x="921" y="156.4292">LEFT_BOTTOM</text><text fill="#000000" font-family="sans-serif" font-size="11" lengthAdjust="spacingAndGlyphs" textLength="89" x="921" y="169.2339">RIGHT_BOTTOM</text><rect fill="none" height="6" style="stroke: #C82930; stroke-width: 1.0;" width="6" x="909" y="176.7305"/><text fill="#000000" font-family="sans-serif" font-size="11" lengthAdjust="spacingAndGlyphs" textLength="51" x="921" y="182.0386">num : int</text><line style="stroke: #A80036; stroke-width: 1.5;" x1="902" x2="1074" y1="188.6328" y2="188.6328"/><ellipse cx="912" cy="200.5352" fill="#84BE84" rx="3" ry="3" style="stroke: #038048; stroke-width: 1.0;"/><text fill="#000000" font-family="sans-serif" font-size="11" lengthAdjust="spacingAndGlyphs" textLength="105" x="921" y="202.8433">Sides(num) : {int}</text><ellipse cx="912" cy="213.3398" fill="#84BE84" rx="3" ry="3" style="stroke: #038048; stroke-width: 1.0;"/><text fill="#000000" font-family="sans-serif" font-size="11" lengthAdjust="spacingAndGlyphs" textLength="78" x="921" y="215.6479">getNum() : int</text><ellipse cx="912" cy="226.1445" fill="#84BE84" rx="3" ry="3" style="stroke: #038048; stroke-width: 1.0;"/><text fill="#000000" font-family="sans-serif" font-size="11" font-style="italic" lengthAdjust="spacingAndGlyphs" textLength="148" x="921" y="228.4526">getOppositeSides() : Sides</text><!--class Server--><rect fill="#FEFECE" filter="url(#f1tpiyf36sv9ib)" height="124.8281" id="Server" style="stroke: #A80036; stroke-width: 1.5;" width="249" x="63.5" y="84.5"/><ellipse cx="163.75" cy="100.5" fill="#ADD1B2" rx="11" ry="11" style="stroke: #A80036; stroke-width: 1.0;"/><path d="M166.0938,96.1719 L166.2656,96.25 C166.4844,95.9375 166.6875,95.8438 166.9844,95.8438 C167.2813,95.8438 167.5625,95.9844 167.7188,96.25 C167.8125,96.4063 167.8281,96.5313 167.8281,96.9688 L167.8281,98.3906 C167.8281,98.8125 167.7969,99 167.6875,99.1563 C167.5156,99.375 167.25,99.5156 166.9844,99.5156 C166.7656,99.5156 166.5313,99.4063 166.3906,99.2656 C166.25,99.1406 166.2188,99.0156 166.1563,98.6094 C166.0625,98.2031 165.8906,97.9844 165.4063,97.7031 C164.9375,97.4531 164.3281,97.2969 163.75,97.2969 C162.0156,97.2969 160.7656,98.6094 160.7656,100.3906 L160.7656,101.4844 C160.7656,103.1875 162.0625,104.2813 164.1094,104.2813 C164.875,104.2813 165.5625,104.1563 165.9844,103.8906 C166.1719,103.7969 166.1719,103.7969 166.625,103.3125 C166.8125,103.125 167.0156,103.0469 167.2344,103.0469 C167.7031,103.0469 168.0938,103.4375 168.0938,103.8906 C168.0938,104.2813 167.7656,104.7344 167.1875,105.1406 C166.4375,105.6875 165.2813,105.9844 164.0625,105.9844 C161.1719,105.9844 159.0625,104.0938 159.0625,101.5156 L159.0625,100.3906 C159.0625,97.6719 161.0625,95.5938 163.6875,95.5938 C164.5625,95.5938 165.1563,95.7344 166.0938,96.1719 Z "/><text fill="#000000" font-family="sans-serif" font-size="12" lengthAdjust="spacingAndGlyphs" textLength="40" x="184.25" y="104.6543">Server</text><line style="stroke: #A80036; stroke-width: 1.5;" x1="64.5" x2="311.5" y1="116.5" y2="116.5"/><ellipse cx="74.5" cy="128.4023" fill="none" rx="3" ry="3" style="stroke: #038048; stroke-width: 1.0;"/><text fill="#000000" font-family="sans-serif" font-size="11" lengthAdjust="spacingAndGlyphs" textLength="123" x="83.5" y="130.7104">games : List&lt;Game&gt;</text><ellipse cx="74.5" cy="141.207" fill="none" rx="3" ry="3" style="stroke: #038048; stroke-width: 1.0;"/><text fill="#000000" font-family="sans-serif" font-size="11" lengthAdjust="spacingAndGlyphs" textLength="223" x="83.5" y="143.5151">connectedClients : List&lt;ClientHandler&gt;</text><ellipse cx="74.5" cy="154.0117" fill="none" rx="3" ry="3" style="stroke: #038048; stroke-width: 1.0;"/><text fill="#000000" font-family="sans-serif" font-size="11" lengthAdjust="spacingAndGlyphs" textLength="163" x="83.5" y="156.3198">serverSocket : ServerSocket</text><line style="stroke: #A80036; stroke-width: 1.5;" x1="64.5" x2="311.5" y1="162.9141" y2="162.9141"/><ellipse cx="74.5" cy="174.8164" fill="#84BE84" rx="3" ry="3" style="stroke: #038048; stroke-width: 1.0;"/><text fill="#000000" font-family="sans-serif" font-size="11" lengthAdjust="spacingAndGlyphs" textLength="46" x="83.5" y="177.1245">Server()</text><ellipse cx="74.5" cy="187.6211" fill="#84BE84" rx="3" ry="3" style="stroke: #038048; stroke-width: 1.0;"/><text fill="#000000" font-family="sans-serif" font-size="11" lengthAdjust="spacingAndGlyphs" text-decoration="underline" textLength="130" x="83.5" y="189.9292">main(args) : {String[]}</text><line style="stroke: #000000; stroke-width: 1.0;" x1="83.5" x2="213.5" y1="191.9292" y2="191.9292"/><ellipse cx="74.5" cy="200.4258" fill="#84BE84" rx="3" ry="3" style="stroke: #038048; stroke-width: 1.0;"/><text fill="#000000" font-family="sans-serif" font-size="11" lengthAdjust="spacingAndGlyphs" textLength="35" x="83.5" y="202.7339">start()</text><!--class Game--><rect fill="#FEFECE" filter="url(#f1tpiyf36sv9ib)" height="188.8516" id="Game" style="stroke: #A80036; stroke-width: 1.5;" width="420" x="373" y="296"/><ellipse cx="560.75" cy="312" fill="#ADD1B2" rx="11" ry="11" style="stroke: #A80036; stroke-width: 1.0;"/><path d="M563.0938,307.6719 L563.2656,307.75 C563.4844,307.4375 563.6875,307.3438 563.9844,307.3438 C564.2813,307.3438 564.5625,307.4844 564.7188,307.75 C564.8125,307.9063 564.8281,308.0313 564.8281,308.4688 L564.8281,309.8906 C564.8281,310.3125 564.7969,310.5 564.6875,310.6563 C564.5156,310.875 564.25,311.0156 563.9844,311.0156 C563.7656,311.0156 563.5313,310.9063 563.3906,310.7656 C563.25,310.6406 563.2188,310.5156 563.1563,310.1094 C563.0625,309.7031 562.8906,309.4844 562.4063,309.2031 C561.9375,308.9531 561.3281,308.7969 560.75,308.7969 C559.0156,308.7969 557.7656,310.1094 557.7656,311.8906 L557.7656,312.9844 C557.7656,314.6875 559.0625,315.7813 561.1094,315.7813 C561.875,315.7813 562.5625,315.6563 562.9844,315.3906 C563.1719,315.2969 563.1719,315.2969 563.625,314.8125 C563.8125,314.625 564.0156,314.5469 564.2344,314.5469 C564.7031,314.5469 565.0938,314.9375 565.0938,315.3906 C565.0938,315.7813 564.7656,316.2344 564.1875,316.6406 C563.4375,317.1875 562.2813,317.4844 561.0625,317.4844 C558.1719,317.4844 556.0625,315.5938 556.0625,313.0156 L556.0625,311.8906 C556.0625,309.1719 558.0625,307.0938 560.6875,307.0938 C561.5625,307.0938 562.1563,307.2344 563.0938,307.6719 Z "/><text fill="#000000" font-family="sans-serif" font-size="12" lengthAdjust="spacingAndGlyphs" textLength="36" x="581.25" y="316.1543">Game</text><line style="stroke: #A80036; stroke-width: 1.5;" x1="374" x2="792" y1="328" y2="328"/><ellipse cx="384" cy="339.9023" fill="none" rx="3" ry="3" style="stroke: #038048; stroke-width: 1.0;"/><text fill="#000000" font-family="sans-serif" font-size="11" lengthAdjust="spacingAndGlyphs" textLength="97" x="393" y="342.2104">players : Player[]</text><ellipse cx="384" cy="352.707" fill="none" rx="3" ry="3" style="stroke: #038048; stroke-width: 1.0;"/><text fill="#000000" font-family="sans-serif" font-size="11" lengthAdjust="spacingAndGlyphs" textLength="126" x="393" y="355.0151">connectedPlayers : int</text><ellipse cx="384" cy="365.5117" fill="none" rx="3" ry="3" style="stroke: #038048; stroke-width: 1.0;"/><text fill="#000000" font-family="sans-serif" font-size="11" lengthAdjust="spacingAndGlyphs" textLength="93" x="393" y="367.8198">totalPlayers : int</text><ellipse cx="384" cy="378.3164" fill="none" rx="3" ry="3" style="stroke: #038048; stroke-width: 1.0;"/><text fill="#000000" font-family="sans-serif" font-size="11" lengthAdjust="spacingAndGlyphs" textLength="126" x="393" y="380.6245">board : AbstractBoard</text><ellipse cx="384" cy="391.1211" fill="none" rx="3" ry="3" style="stroke: #038048; stroke-width: 1.0;"/><text fill="#000000" font-family="sans-serif" font-size="11" lengthAdjust="spacingAndGlyphs" textLength="72" x="393" y="393.4292">rules : Rules</text><ellipse cx="384" cy="403.9258" fill="none" rx="3" ry="3" style="stroke: #038048; stroke-width: 1.0;"/><text fill="#000000" font-family="sans-serif" font-size="11" lengthAdjust="spacingAndGlyphs" textLength="94" x="393" y="406.2339">boardd : Field[][]</text><ellipse cx="384" cy="416.7305" fill="none" rx="3" ry="3" style="stroke: #038048; stroke-width: 1.0;"/><text fill="#000000" font-family="sans-serif" font-size="11" lengthAdjust="spacingAndGlyphs" textLength="123" x="393" y="419.0386">Player : currentPlayer</text><line style="stroke: #A80036; stroke-width: 1.5;" x1="374" x2="792" y1="425.6328" y2="425.6328"/><ellipse cx="384" cy="437.5352" fill="#84BE84" rx="3" ry="3" style="stroke: #038048; stroke-width: 1.0;"/><text fill="#000000" font-family="sans-serif" font-size="11" lengthAdjust="spacingAndGlyphs" textLength="124" x="393" y="439.8433">Game(players) : {int}</text><ellipse cx="384" cy="450.3398" fill="#84BE84" rx="3" ry="3" style="stroke: #038048; stroke-width: 1.0;"/><text fill="#000000" font-family="sans-serif" font-size="11" lengthAdjust="spacingAndGlyphs" textLength="394" x="393" y="452.6479">validMove(pawnx, pawny, targetx, targety) : boolean {int, int, int, int}</text><ellipse cx="384" cy="463.1445" fill="#84BE84" rx="3" ry="3" style="stroke: #038048; stroke-width: 1.0;"/><text fill="#000000" font-family="sans-serif" font-size="11" lengthAdjust="spacingAndGlyphs" textLength="204" x="393" y="465.4526">checkWin(player) : boolean {Player}</text><ellipse cx="384" cy="475.9492" fill="#84BE84" rx="3" ry="3" style="stroke: #038048; stroke-width: 1.0;"/><text fill="#000000" font-family="sans-serif" font-size="11" lengthAdjust="spacingAndGlyphs" textLength="124" x="393" y="478.2573">nextPlayer() : boolean</text><!--class ClientHandler--><rect fill="#FEFECE" filter="url(#f1tpiyf36sv9ib)" height="163.2422" id="ClientHandler" style="stroke: #A80036; stroke-width: 1.5;" width="300" x="38" y="309"/><ellipse cx="141.75" cy="325" fill="#ADD1B2" rx="11" ry="11" style="stroke: #A80036; stroke-width: 1.0;"/><path d="M144.0938,320.6719 L144.2656,320.75 C144.4844,320.4375 144.6875,320.3438 144.9844,320.3438 C145.2813,320.3438 145.5625,320.4844 145.7188,320.75 C145.8125,320.9063 145.8281,321.0313 145.8281,321.4688 L145.8281,322.8906 C145.8281,323.3125 145.7969,323.5 145.6875,323.6563 C145.5156,323.875 145.25,324.0156 144.9844,324.0156 C144.7656,324.0156 144.5313,323.9063 144.3906,323.7656 C144.25,323.6406 144.2188,323.5156 144.1563,323.1094 C144.0625,322.7031 143.8906,322.4844 143.4063,322.2031 C142.9375,321.9531 142.3281,321.7969 141.75,321.7969 C140.0156,321.7969 138.7656,323.1094 138.7656,324.8906 L138.7656,325.9844 C138.7656,327.6875 140.0625,328.7813 142.1094,328.7813 C142.875,328.7813 143.5625,328.6563 143.9844,328.3906 C144.1719,328.2969 144.1719,328.2969 144.625,327.8125 C144.8125,327.625 145.0156,327.5469 145.2344,327.5469 C145.7031,327.5469 146.0938,327.9375 146.0938,328.3906 C146.0938,328.7813 145.7656,329.2344 145.1875,329.6406 C144.4375,330.1875 143.2813,330.4844 142.0625,330.4844 C139.1719,330.4844 137.0625,328.5938 137.0625,326.0156 L137.0625,324.8906 C137.0625,322.1719 139.0625,320.0938 141.6875,320.0938 C142.5625,320.0938 143.1563,320.2344 144.0938,320.6719 Z "/><text fill="#000000" font-family="sans-serif" font-size="12" lengthAdjust="spacingAndGlyphs" textLength="84" x="162.25" y="329.1543">ClientHandler</text><line style="stroke: #A80036; stroke-width: 1.5;" x1="39" x2="337" y1="341" y2="341"/><ellipse cx="49" cy="352.9023" fill="none" rx="3" ry="3" style="stroke: #038048; stroke-width: 1.0;"/><text fill="#000000" font-family="sans-serif" font-size="11" lengthAdjust="spacingAndGlyphs" textLength="87" x="58" y="355.2104">socket : Socket</text><ellipse cx="49" cy="365.707" fill="none" rx="3" ry="3" style="stroke: #038048; stroke-width: 1.0;"/><text fill="#000000" font-family="sans-serif" font-size="11" lengthAdjust="spacingAndGlyphs" textLength="111" x="58" y="368.0151">in : BufferedReader</text><ellipse cx="49" cy="378.5117" fill="none" rx="3" ry="3" style="stroke: #038048; stroke-width: 1.0;"/><text fill="#000000" font-family="sans-serif" font-size="11" lengthAdjust="spacingAndGlyphs" textLength="89" x="58" y="380.8198">out : PrintWriter</text><ellipse cx="49" cy="391.3164" fill="none" rx="3" ry="3" style="stroke: #038048; stroke-width: 1.0;"/><text fill="#000000" font-family="sans-serif" font-size="11" lengthAdjust="spacingAndGlyphs" textLength="87" x="58" y="393.6245">server : Server</text><ellipse cx="49" cy="404.1211" fill="none" rx="3" ry="3" style="stroke: #038048; stroke-width: 1.0;"/><text fill="#000000" font-family="sans-serif" font-size="11" lengthAdjust="spacingAndGlyphs" textLength="78" x="58" y="406.4292">game : Game</text><ellipse cx="49" cy="416.9258" fill="none" rx="3" ry="3" style="stroke: #038048; stroke-width: 1.0;"/><text fill="#000000" font-family="sans-serif" font-size="11" lengthAdjust="spacingAndGlyphs" textLength="82" x="58" y="419.2339">player : Player</text><line style="stroke: #A80036; stroke-width: 1.5;" x1="39" x2="337" y1="425.8281" y2="425.8281"/><ellipse cx="49" cy="437.7305" fill="#84BE84" rx="3" ry="3" style="stroke: #038048; stroke-width: 1.0;"/><text fill="#000000" font-family="sans-serif" font-size="11" lengthAdjust="spacingAndGlyphs" textLength="274" x="58" y="440.0386">clientHandler(socket, server) : {Socket, Server}</text><rect fill="#F24D5C" height="6" style="stroke: #C82930; stroke-width: 1.0;" width="6" x="46" y="447.5352"/><text fill="#000000" font-family="sans-serif" font-size="11" lengthAdjust="spacingAndGlyphs" textLength="190" x="58" y="452.8433">sendToAllPlayers(msg) : {String}</text><ellipse cx="49" cy="463.3398" fill="#84BE84" rx="3" ry="3" style="stroke: #038048; stroke-width: 1.0;"/><text fill="#000000" font-family="sans-serif" font-size="11" lengthAdjust="spacingAndGlyphs" textLength="27" x="58" y="465.6479">run()</text><!--class Player--><rect fill="#FEFECE" filter="url(#f1tpiyf36sv9ib)" height="137.6328" id="Player" style="stroke: #A80036; stroke-width: 1.5;" width="227" x="342.5" y="562"/><ellipse cx="432.75" cy="578" fill="#ADD1B2" rx="11" ry="11" style="stroke: #A80036; stroke-width: 1.0;"/><path d="M435.0938,573.6719 L435.2656,573.75 C435.4844,573.4375 435.6875,573.3438 435.9844,573.3438 C436.2813,573.3438 436.5625,573.4844 436.7188,573.75 C436.8125,573.9063 436.8281,574.0313 436.8281,574.4688 L436.8281,575.8906 C436.8281,576.3125 436.7969,576.5 436.6875,576.6563 C436.5156,576.875 436.25,577.0156 435.9844,577.0156 C435.7656,577.0156 435.5313,576.9063 435.3906,576.7656 C435.25,576.6406 435.2188,576.5156 435.1563,576.1094 C435.0625,575.7031 434.8906,575.4844 434.4063,575.2031 C433.9375,574.9531 433.3281,574.7969 432.75,574.7969 C431.0156,574.7969 429.7656,576.1094 429.7656,577.8906 L429.7656,578.9844 C429.7656,580.6875 431.0625,581.7813 433.1094,581.7813 C433.875,581.7813 434.5625,581.6563 434.9844,581.3906 C435.1719,581.2969 435.1719,581.2969 435.625,580.8125 C435.8125,580.625 436.0156,580.5469 436.2344,580.5469 C436.7031,580.5469 437.0938,580.9375 437.0938,581.3906 C437.0938,581.7813 436.7656,582.2344 436.1875,582.6406 C435.4375,583.1875 434.2813,583.4844 433.0625,583.4844 C430.1719,583.4844 428.0625,581.5938 428.0625,579.0156 L428.0625,577.8906 C428.0625,575.1719 430.0625,573.0938 432.6875,573.0938 C433.5625,573.0938 434.1563,573.2344 435.0938,573.6719 Z "/><text fill="#000000" font-family="sans-serif" font-size="12" lengthAdjust="spacingAndGlyphs" textLength="38" x="453.25" y="582.1543">Player</text><line style="stroke: #A80036; stroke-width: 1.5;" x1="343.5" x2="568.5" y1="594" y2="594"/><ellipse cx="353.5" cy="605.9023" fill="none" rx="3" ry="3" style="stroke: #038048; stroke-width: 1.0;"/><text fill="#000000" font-family="sans-serif" font-size="11" lengthAdjust="spacingAndGlyphs" textLength="36" x="362.5" y="608.2104">id : int</text><ellipse cx="353.5" cy="618.707" fill="none" rx="3" ry="3" style="stroke: #038048; stroke-width: 1.0;"/><text fill="#000000" font-family="sans-serif" font-size="11" lengthAdjust="spacingAndGlyphs" textLength="69" x="362.5" y="621.0151">colot : Color</text><ellipse cx="353.5" cy="631.5117" fill="none" rx="3" ry="3" style="stroke: #038048; stroke-width: 1.0;"/><text fill="#000000" font-family="sans-serif" font-size="11" lengthAdjust="spacingAndGlyphs" textLength="98" x="362.5" y="633.8198">colours : Colours</text><ellipse cx="353.5" cy="644.3164" fill="none" rx="3" ry="3" style="stroke: #038048; stroke-width: 1.0;"/><text fill="#000000" font-family="sans-serif" font-size="11" lengthAdjust="spacingAndGlyphs" textLength="96" x="362.5" y="646.6245">startSide : Sides</text><ellipse cx="353.5" cy="657.1211" fill="none" rx="3" ry="3" style="stroke: #038048; stroke-width: 1.0;"/><text fill="#000000" font-family="sans-serif" font-size="11" lengthAdjust="spacingAndGlyphs" textLength="76" x="362.5" y="659.4292">win : boolean</text><line style="stroke: #A80036; stroke-width: 1.5;" x1="343.5" x2="568.5" y1="666.0234" y2="666.0234"/><ellipse cx="353.5" cy="677.9258" fill="#84BE84" rx="3" ry="3" style="stroke: #038048; stroke-width: 1.0;"/><text fill="#000000" font-family="sans-serif" font-size="11" lengthAdjust="spacingAndGlyphs" textLength="184" x="362.5" y="680.2339">Player(id, board) : {int, Field[][]}</text><ellipse cx="353.5" cy="690.7305" fill="#84BE84" rx="3" ry="3" style="stroke: #038048; stroke-width: 1.0;"/><text fill="#000000" font-family="sans-serif" font-size="11" lengthAdjust="spacingAndGlyphs" textLength="201" x="362.5" y="693.0386">finishSide(board) : Sides {Field[][]}</text><!--class Rules--><rect fill="#FEFECE" filter="url(#f1tpiyf36sv9ib)" height="137.6328" id="Rules" style="stroke: #A80036; stroke-width: 1.5;" width="433" x="366.5" y="78"/><ellipse cx="561.75" cy="94" fill="#ADD1B2" rx="11" ry="11" style="stroke: #A80036; stroke-width: 1.0;"/><path d="M564.0938,89.6719 L564.2656,89.75 C564.4844,89.4375 564.6875,89.3438 564.9844,89.3438 C565.2813,89.3438 565.5625,89.4844 565.7188,89.75 C565.8125,89.9063 565.8281,90.0313 565.8281,90.4688 L565.8281,91.8906 C565.8281,92.3125 565.7969,92.5 565.6875,92.6563 C565.5156,92.875 565.25,93.0156 564.9844,93.0156 C564.7656,93.0156 564.5313,92.9063 564.3906,92.7656 C564.25,92.6406 564.2188,92.5156 564.1563,92.1094 C564.0625,91.7031 563.8906,91.4844 563.4063,91.2031 C562.9375,90.9531 562.3281,90.7969 561.75,90.7969 C560.0156,90.7969 558.7656,92.1094 558.7656,93.8906 L558.7656,94.9844 C558.7656,96.6875 560.0625,97.7813 562.1094,97.7813 C562.875,97.7813 563.5625,97.6563 563.9844,97.3906 C564.1719,97.2969 564.1719,97.2969 564.625,96.8125 C564.8125,96.625 565.0156,96.5469 565.2344,96.5469 C565.7031,96.5469 566.0938,96.9375 566.0938,97.3906 C566.0938,97.7813 565.7656,98.2344 565.1875,98.6406 C564.4375,99.1875 563.2813,99.4844 562.0625,99.4844 C559.1719,99.4844 557.0625,97.5938 557.0625,95.0156 L557.0625,93.8906 C557.0625,91.1719 559.0625,89.0938 561.6875,89.0938 C562.5625,89.0938 563.1563,89.2344 564.0938,89.6719 Z "/><text fill="#000000" font-family="sans-serif" font-size="12" lengthAdjust="spacingAndGlyphs" textLength="34" x="582.25" y="98.1543">Rules</text><line style="stroke: #A80036; stroke-width: 1.5;" x1="367.5" x2="798.5" y1="110" y2="110"/><polygon fill="none" points="377.5,117.9023,373.5,123.9023,381.5,123.9023" style="stroke: #1963A0; stroke-width: 1.0;"/><text fill="#000000" font-family="sans-serif" font-size="11" lengthAdjust="spacingAndGlyphs" textLength="160" x="386.5" y="124.2104">possibleMoves : List&lt;Field&gt;</text><polygon fill="none" points="377.5,130.707,373.5,136.707,381.5,136.707" style="stroke: #1963A0; stroke-width: 1.0;"/><text fill="#000000" font-family="sans-serif" font-size="11" lengthAdjust="spacingAndGlyphs" textLength="78" x="386.5" y="137.0151">game : Game</text><line style="stroke: #A80036; stroke-width: 1.5;" x1="367.5" x2="798.5" y1="143.6094" y2="143.6094"/><ellipse cx="377.5" cy="155.5117" fill="#84BE84" rx="3" ry="3" style="stroke: #038048; stroke-width: 1.0;"/><text fill="#000000" font-family="sans-serif" font-size="11" lengthAdjust="spacingAndGlyphs" textLength="261" x="386.5" y="157.8198">Rules(board, game) : {AbstractBoard, Game}</text><polygon fill="#4177AF" points="377.5,164.3164,373.5,170.3164,381.5,170.3164" style="stroke: #1963A0; stroke-width: 1.0;"/><text fill="#000000" font-family="sans-serif" font-size="11" lengthAdjust="spacingAndGlyphs" textLength="370" x="386.5" y="170.6245">move(pawnx, pawny, targetx, targety) : boolean {int, int, int, int}</text><ellipse cx="377.5" cy="181.1211" fill="#84BE84" rx="3" ry="3" style="stroke: #038048; stroke-width: 1.0;"/><text fill="#000000" font-family="sans-serif" font-size="11" lengthAdjust="spacingAndGlyphs" textLength="379" x="386.5" y="183.4292">tryMove(pawnx, pawny, targetx, targety): boolean {int, int, int, int}</text><polygon fill="#4177AF" points="377.5,189.9258,373.5,195.9258,381.5,195.9258" style="stroke: #1963A0; stroke-width: 1.0;"/><text fill="#000000" font-family="sans-serif" font-size="11" lengthAdjust="spacingAndGlyphs" textLength="407" x="386.5" y="196.2339">possibleSingleMoves(pawnx, pawny, isPawn) : List&lt;Field&gt; {int, int, int}</text><polygon fill="#4177AF" points="377.5,202.7305,373.5,208.7305,381.5,208.7305" style="stroke: #1963A0; stroke-width: 1.0;"/><text fill="#000000" font-family="sans-serif" font-size="11" lengthAdjust="spacingAndGlyphs" textLength="301" x="386.5" y="209.0386">possibleJumps(pawnx, pawny) : List&lt;Field&gt; {int, int}</text><!--link Sides to Field--><path d="M988,235.187 C988,250.598 988,266.801 988,282.678 " fill="none" id="Sides-Field" style="stroke: #A80036; stroke-width: 1.0;"/><polygon fill="#A80036" points="988,295.914,992,289.914,988,283.914,984,289.914,988,295.914" style="stroke: #A80036; stroke-width: 1.0;"/><text fill="#000000" font-family="sans-serif" font-size="13" lengthAdjust="spacingAndGlyphs" textLength="8" x="979.6688" y="255.1815">2</text><text fill="#000000" font-family="sans-serif" font-size="13" lengthAdjust="spacingAndGlyphs" textLength="8" x="979.6813" y="284.8571">1</text><!--link Server to Game--><path d="M299.918,216.426 C340.283,241.104 386.56,269.398 429.842,295.86 " fill="none" id="Server-Game" style="stroke: #A80036; stroke-width: 1.0;"/><polygon fill="#A80036" points="288.697,209.566,291.7295,216.1085,298.935,215.8256,295.9026,209.2831,288.697,209.566" style="stroke: #A80036; stroke-width: 1.0;"/><text fill="#000000" font-family="sans-serif" font-size="13" lengthAdjust="spacingAndGlyphs" textLength="8" x="291.2732" y="229.313">1</text><text fill="#000000" font-family="sans-serif" font-size="13" lengthAdjust="spacingAndGlyphs" textLength="7" x="410.3583" y="284.7988">*</text><!--link Server to ClientHandler--><path d="M176.114,222.659 C175.039,249.998 174.967,281.047 175.898,308.885 " fill="none" id="Server-ClientHandler" style="stroke: #A80036; stroke-width: 1.0;"/><polygon fill="#A80036" points="176.723,209.566,172.4484,215.3736,176.1652,221.553,180.4398,215.7455,176.723,209.566" style="stroke: #A80036; stroke-width: 1.0;"/><text fill="#000000" font-family="sans-serif" font-size="13" lengthAdjust="spacingAndGlyphs" textLength="8" x="167.0521" y="229.313">1</text><text fill="#000000" font-family="sans-serif" font-size="13" lengthAdjust="spacingAndGlyphs" textLength="7" x="167.5084" y="298.0102">*</text><!--link Server to ClientHandler--><path d="M199.941,209.566 C201.44,235.742 201.858,266.848 201.195,295.774 " fill="none" id="Server-ClientHandler" style="stroke: #A80036; stroke-width: 1.0;"/><polygon fill="#A80036" points="200.814,308.885,204.9864,303.0036,201.1621,296.8901,196.9898,302.7715,200.814,308.885" style="stroke: #A80036; stroke-width: 1.0;"/><text fill="#000000" font-family="sans-serif" font-size="13" lengthAdjust="spacingAndGlyphs" textLength="8" x="192.8095" y="229.313">1</text><text fill="#000000" font-family="sans-serif" font-size="13" lengthAdjust="spacingAndGlyphs" textLength="8" x="193.599" y="298.0102">1</text><!--link Game to Player--><path d="M559.227,497.75 C554.909,509.627 549.868,521.29 544,532 C538.396,542.227 531.533,552.269 524.134,561.794 " fill="none" id="Game-Player" style="stroke: #A80036; stroke-width: 1.0;"/><polygon fill="#A80036" points="563.469,485.328,557.7446,489.7133,559.5909,496.6841,565.3153,492.2987,563.469,485.328" style="stroke: #A80036; stroke-width: 1.0;"/><text fill="#000000" font-family="sans-serif" font-size="13" lengthAdjust="spacingAndGlyphs" textLength="46" x="552" y="528.0669">players</text><text fill="#000000" font-family="sans-serif" font-size="13" lengthAdjust="spacingAndGlyphs" textLength="8" x="553.7409" y="504.9199">1</text><text fill="#000000" font-family="sans-serif" font-size="13" lengthAdjust="spacingAndGlyphs" textLength="21" x="509.0775" y="550.9764">2-6</text><!--link Game to Player--><path d="M459.055,496.034 C455.248,502.153 451.858,508.48 449,515 C442.657,529.473 440.895,545.964 441.491,561.851 " fill="none" id="Game-Player" style="stroke: #A80036; stroke-width: 1.0;"/><polygon fill="#A80036" points="466.334,485.248,459.6621,487.9841,459.6217,495.1951,466.2936,492.459,466.334,485.248" style="stroke: #A80036; stroke-width: 1.0;"/><text fill="#000000" font-family="sans-serif" font-size="13" lengthAdjust="spacingAndGlyphs" textLength="85" x="450" y="528.0669">currentPlayer</text><text fill="#000000" font-family="sans-serif" font-size="13" lengthAdjust="spacingAndGlyphs" textLength="8" x="449.4726" y="504.8341">1</text><text fill="#000000" font-family="sans-serif" font-size="13" lengthAdjust="spacingAndGlyphs" textLength="8" x="431.5823" y="551.0392">1</text><!--link Game to Field--><path d="M806.281,390.5 C813.411,390.5 820.541,390.5 827.67,390.5 " fill="none" id="Game-Field" style="stroke: #A80036; stroke-width: 1.0;"/><polygon fill="#A80036" points="793.015,390.5,799.015,394.5,805.015,390.5,799.015,386.5,793.015,390.5" style="stroke: #A80036; stroke-width: 1.0;"/><text fill="#000000" font-family="sans-serif" font-size="13" lengthAdjust="spacingAndGlyphs" textLength="8" x="800.7062" y="387.3024">1</text><text fill="#000000" font-family="sans-serif" font-size="13" lengthAdjust="spacingAndGlyphs" textLength="7" x="813.2465" y="387.2334">*</text><!--link Rules to Game--><path d="M571.389,216.236 C570.435,236.874 570.081,260.053 570.325,282.582 " fill="none" id="Rules-Game" style="stroke: #A80036; stroke-width: 1.0;"/><polygon fill="#A80036" points="570.538,295.747,574.4406,289.6832,570.3442,283.7486,566.4416,289.8124,570.538,295.747" style="stroke: #A80036; stroke-width: 1.0;"/><text fill="#000000" font-family="sans-serif" font-size="13" lengthAdjust="spacingAndGlyphs" textLength="8" x="561.9011" y="235.6406">1</text><text fill="#000000" font-family="sans-serif" font-size="13" lengthAdjust="spacingAndGlyphs" textLength="8" x="561.2776" y="284.9959">1</text><!--link Rules to Game--><path d="M595.837,229.26 C596.579,250.607 596.698,273.804 596.196,295.747 " fill="none" id="Rules-Game" style="stroke: #A80036; stroke-width: 1.0;"/><polygon fill="#A80036" points="595.294,216.236,591.5474,222.3974,595.7938,228.2256,599.5404,222.0642,595.294,216.236" style="stroke: #A80036; stroke-width: 1.0;"/><text fill="#000000" font-family="sans-serif" font-size="13" lengthAdjust="spacingAndGlyphs" textLength="8" x="588.0845" y="235.6406">1</text><text fill="#000000" font-family="sans-serif" font-size="13" lengthAdjust="spacingAndGlyphs" textLength="8" x="588.9001" y="284.9959">1</text><!--link Rules to Field--><path d="M708.497,222.834 C747.231,245.93 790.38,271.66 830.962,295.859 " fill="none" id="Rules-Field" style="stroke: #A80036; stroke-width: 1.0;"/><polygon fill="#A80036" points="697.163,216.075,700.2675,222.5836,707.4695,222.2212,704.365,215.7126,697.163,216.075" style="stroke: #A80036; stroke-width: 1.0;"/><text fill="#000000" font-family="sans-serif" font-size="13" lengthAdjust="spacingAndGlyphs" textLength="8" x="700.0072" y="235.7044">1</text><text fill="#000000" font-family="sans-serif" font-size="13" lengthAdjust="spacingAndGlyphs" textLength="7" x="813.1759" y="286.0727">*</text><!--link ClientHandler to Game--><path d="M351.15,390.5 C358.426,390.5 365.702,390.5 372.978,390.5 " fill="none" id="ClientHandler-Game" style="stroke: #A80036; stroke-width: 1.0;"/><polygon fill="#A80036" points="338.054,390.5,344.054,394.5,350.054,390.5,344.054,386.5,338.054,390.5" style="stroke: #A80036; stroke-width: 1.0;"/><text fill="#000000" font-family="sans-serif" font-size="13" lengthAdjust="spacingAndGlyphs" textLength="8" x="345.9974" y="387.1774">1</text><text fill="#000000" font-family="sans-serif" font-size="13" lengthAdjust="spacingAndGlyphs" textLength="8" x="357.2866" y="387.3024">1</text><!--link ClientHandler to Player--><path d="M288.79,481.195 C318.739,507.848 351.052,536.604 379.213,561.665 " fill="none" id="ClientHandler-Player" style="stroke: #A80036; stroke-width: 1.0;"/><polygon fill="#A80036" points="278.733,472.245,280.5558,479.2219,287.6971,480.2228,285.8743,473.2458,278.733,472.245" style="stroke: #A80036; stroke-width: 1.0;"/><text fill="#000000" font-family="sans-serif" font-size="13" lengthAdjust="spacingAndGlyphs" textLength="8" x="278.4577" y="492.2554">1</text><text fill="#000000" font-family="sans-serif" font-size="13" lengthAdjust="spacingAndGlyphs" textLength="8" x="362.8818" y="550.8341">1</text><!--
@startuml
Package Server {
  
  Class Field {
    +isPawn : boolean
    +color : Color
    +startSide : Sides
    +winSide : Sides
    +x: int
    +y :int
    +Field(x, y) : {int, int}
    +Field(color, start, isPawn) : {Color, Sides, boolean}
    +setPawn(is) : Field {boolean}
    +setStartSide(side) : Field {Sides}
    +setColor(color) : Field {Color}
  }
  
  enum Sides {
    TOP
    RIGHT_TOP
    RIGHT_BOTTOM
    BOTTOM
    LEFT_BOTTOM
    RIGHT_BOTTOM
    -num : int
    +Sides(num) : {int}
    +getNum() : int
    +{abstract} getOppositeSides() : Sides
  }
  
  class Server {
    +games : List<Game>
    +connectedClients : List<ClientHandler>
    +serverSocket : ServerSocket
    +Server()
    +{static} main(args) : {String[]}
    +start()
  }
  
  class Game {
    +players : Player[]
    +connectedPlayers : int
    +totalPlayers : int
    +board : AbstractBoard
    +rules : Rules
    +boardd : Field[][]
    +Player : currentPlayer
    +Game(players) : {int}
    +validMove(pawnx, pawny, targetx, targety) : boolean {int, int, int, int}
    +checkWin(player) : boolean {Player}
    +nextPlayer() : boolean
  }
  
  class ClientHandler {
    +socket : Socket
    +in : BufferedReader
    +out : PrintWriter
    +server : Server
    +game : Game
    +player : Player
    +clientHandler(socket, server) : {Socket, Server}
    -sendToAllPlayers(msg) : {String}
    +run()
  }
  
  class Player {
    +id : int
    +colot : Color
    +colours : Colours
    +startSide : Sides
    +win : boolean
    +Player(id, board) : {int, Field[][]}
    +finishSide(board) : Sides {Field[][]}
  }
  
  class Rules {
    ~possibleMoves : List<Field>
    ~game : Game
    +Rules(board, game) : {AbstractBoard, Game}
    ~move(pawnx, pawny, targetx, targety) : boolean {int, int, int, int}
    +tryMove(pawnx, pawny, targetx, targety): boolean {int, int, int, int}
    ~possibleSingleMoves(pawnx, pawny, isPawn) : List<Field> {int, int, int}
    ~possibleJumps(pawnx, pawny) : List<Field> {int, int}
  }
}

Field "1" *-up- "2" Sides

Server "1" *-down- "*" Game
Server "1" *-down- "*" ClientHandler

Game "1" *-down- "2-6" Player : players
Game "1" *-down- "1" Player : currentPlayer
Game "1" *-right- "*" Field
Game "1" *-up- "1" Rules

Rules "1" *-down- "1" Game
Rules "1" *-down- "*" Field

ClientHandler "1" *-up- "1" Server
ClientHandler "1" *-right- "1" Game
ClientHandler "1" *-down- "1" Player
@enduml

PlantUML version 1.2018.15beta2(Unknown compile time)
(GPL source distribution)
Java Runtime: Java(TM) SE Runtime Environment
JVM: Java HotSpot(TM) 64-Bit Server VM
Java Version: 1.7.0_25-b15
Operating System: Linux
Default Encoding: UTF-8
Language: en
Country: US
--></g></svg>